PathFileType	4	(X/Y/Z)
DataRate	CameraRate	NumFrames	NumMarkers	Units	OrigDataRate	OrigDataStartFrame	OrigNumFrames	
	120.0	120.0	5	39	mm	120.0	27	104
Frame#	Time	midhip	hip_r	hip_l	knee_r	knee_l	ankle_r	ankle_l	midasis	asis_r	asis_l	psis_r	psis_l	epicondLat_r	epicondLat_l	epicondMed_r	epicondMed_l	malleolusLat_r	malleolusLat_l	malleolusMedv_r	malleolusMedv_l	heel_r	heel_l	sternalnotch	xyphoidprocess	neck	subclavicle_r	subclavicle_l	toe_r	toe_l	thighwand_r	thighwand_l	upperleg1_r	upperleg1_l	upperleg2_r	upperleg2_l	shankwand_r	shankwand_l	lowerleg1_r	lowerleg1_l
	X1	Y1	Z1	X2	Y2	Z2	X3	Y3	Z3	X4	Y4	Z4	X5	Y5	Z5	X6	Y6	Z6	X7	Y7	Z7	X8	Y8	Z8	X9	Y9	Z9	X10	Y10	Z10	X11	Y11	Z11	X12	Y12	Z12	X13	Y13	Z13	X14	Y14	Z14	X15	Y15	Z15	X16	Y16	Z16	X17	Y17	Z17	X18	Y18	Z18	X19	Y19	Z19	X20	Y20	Z20	X21	Y21	Z21	X22	Y22	Z22	X23	Y23	Z23	X24	Y24	Z24	X25	Y25	Z25	X26	Y26	Z26	X27	Y27	Z27	X28	Y28	Z28	X29	Y29	Z29	X30	Y30	Z30	X31	Y31	Z31	X32	Y32	Z32	X33	Y33	Z33	X34	Y34	Z34	X35	Y35	Z35	X36	Y36	Z36	X37	Y37	Z37	X38	Y38	Z38	X39	Y39	Z39

	27	0.22500	1478.915	905.369	-250.696	1466.506	879.823	-177.278	1473.066	883.532	-327.519	1443.221	469.888	-134.391	1432.101	461.267	-353.086	1406.489	69.619	-130.408	1383.749	71.143	-363.301	1565.779	960.086	-246.271	1560.589	957.152	-127.406	1570.969	963.020	-365.137	1380.843	1017.838	-220.870	1387.702	1016.842	-306.897	1452.616	475.578	-74.897	1440.293	464.067	-412.458	1427.953	475.979	-183.279	1427.194	465.812	-301.732	1391.159	71.414	-91.347	1365.051	74.412	-399.642	1415.662	83.278	-157.739	1391.004	83.322	-338.417	1342.788	42.514	-143.829	1317.613	42.973	-352.146	1486.764	1370.164	-234.450	1568.889	1206.548	-244.202	1374.556	1436.634	-239.336	1497.612	1359.709	-182.284	1510.447	1364.801	-289.052	1525.738	39.364	-99.358	1500.442	41.144	-401.826	1506.547	591.313	-9.601	1596.777	553.186	-341.859	1522.487	650.933	-82.476	1535.054	618.754	-381.491	1514.036	563.383	-97.346	1508.342	535.461	-385.532	1418.064	204.964	-5.605	1405.990	211.937	-479.473	1406.089	171.735	-78.037	1385.626	173.575	-410.364
	28	0.23333	1478.747	905.276	-250.554	1466.498	879.852	-177.374	1473.122	883.557	-327.611	1443.242	469.881	-134.425	1432.083	461.284	-353.107	1406.501	69.622	-130.394	1383.744	71.138	-363.308	1565.776	960.144	-246.327	1560.537	957.214	-127.508	1571.015	963.074	-365.146	1380.756	1017.860	-220.920	1387.725	1016.823	-306.901	1452.638	475.580	-74.931	1440.274	464.073	-412.480	1428.031	476.403	-183.883	1427.230	465.908	-301.760	1391.171	71.422	-91.334	1365.046	74.405	-399.649	1415.669	83.120	-157.808	1390.974	83.353	-338.444	1342.790	42.518	-143.837	1317.622	42.966	-352.143	1486.790	1370.145	-234.493	1568.976	1206.568	-244.377	1374.469	1436.637	-239.355	1497.584	1359.622	-182.322	1510.536	1364.864	-289.084	1525.755	39.353	-99.311	1500.423	41.154	-401.833	1506.556	591.307	-9.598	1596.844	553.211	-341.928	1522.489	651.007	-82.510	1535.220	618.833	-381.559	1514.082	563.612	-97.649	1508.401	535.395	-385.582	1418.104	204.966	-5.613	1405.973	211.935	-479.495	1405.968	171.664	-78.157	1385.495	173.683	-410.426
	29	0.24167	1478.938	905.478	-250.364	1466.479	879.879	-177.464	1473.180	883.576	-327.698	1443.249	469.877	-134.440	1432.076	461.303	-353.131	1406.504	69.627	-130.388	1383.744	71.133	-363.314	1565.773	960.191	-246.371	1560.475	957.268	-127.588	1571.070	963.114	-365.154	1380.680	1017.882	-220.948	1387.761	1016.798	-306.897	1452.656	475.587	-74.949	1440.263	464.082	-412.505	1427.967	476.652	-184.135	1427.302	465.693	-302.018	1391.181	71.429	-91.325	1365.044	74.398	-399.654	1415.786	82.930	-157.830	1390.819	83.336	-338.427	1342.793	42.531	-143.856	1317.638	42.962	-352.146	1486.750	1370.144	-234.536	1569.015	1206.601	-244.314	1374.341	1436.607	-239.359	1497.485	1359.628	-182.392	1510.564	1364.872	-289.054	1525.774	39.349	-99.270	1500.417	41.166	-401.839	1506.550	591.306	-9.595	1596.908	553.233	-341.993	1522.531	651.180	-82.745	1535.236	618.877	-381.609	1514.084	563.806	-97.905	1508.432	535.235	-385.735	1418.135	204.966	-5.619	1405.967	211.930	-479.503	1405.805	171.641	-78.274	1385.307	173.771	-410.463
	30	0.25000	1479.141	905.673	-250.151	1466.446	879.902	-177.553	1473.236	883.588	-327.784	1443.248	469.880	-134.438	1432.084	461.322	-353.160	1406.501	69.633	-130.390	1383.752	71.127	-363.317	1565.767	960.226	-246.407	1560.399	957.312	-127.647	1571.135	963.140	-365.167	1380.620	1017.903	-220.957	1387.816	1016.768	-306.884	1452.674	475.602	-74.952	1440.266	464.093	-412.535	1427.867	476.634	-184.107	1427.318	465.513	-302.093	1391.190	71.434	-91.321	1365.049	74.390	-399.656	1415.892	82.871	-157.824	1390.648	83.240	-338.364	1342.797	42.548	-143.882	1317.657	42.962	-352.153	1486.617	1370.112	-234.576	1568.791	1206.524	-244.387	1374.329	1436.600	-239.413	1497.292	1359.549	-182.513	1510.485	1364.865	-288.983	1525.790	39.355	-99.247	1500.427	41.178	-401.844	1506.526	591.309	-9.592	1596.966	553.250	-342.048	1522.611	651.214	-83.060	1535.102	618.752	-381.628	1514.082	563.907	-98.038	1508.381	535.230	-385.798	1418.153	204.961	-5.621	1405.976	211.922	-479.500	1405.892	171.669	-78.243	1385.227	173.817	-410.439
	31	0.25833	1479.090	905.630	-249.933	1466.400	879.921	-177.647	1473.290	883.596	-327.874	1443.247	469.891	-134.425	1432.101	461.339	-353.194	1406.495	69.637	-130.395	1383.768	71.120	-363.317	1565.757	960.252	-246.442	1560.311	957.347	-127.689	1571.203	963.157	-365.195	1380.573	1017.918	-220.951	1387.893	1016.730	-306.861	1452.692	475.628	-74.942	1440.280	464.102	-412.570	1427.932	476.723	-184.240	1427.433	465.581	-301.882	1391.196	71.435	-91.322	1365.063	74.380	-399.656	1415.903	82.959	-157.766	1390.393	83.098	-338.278	1342.803	42.565	-143.909	1317.672	42.964	-352.161	1486.540	1370.170	-234.606	1568.743	1206.604	-244.548	1374.429	1436.550	-239.489	1497.174	1359.545	-182.599	1510.453	1364.992	-288.946	1525.796	39.371	-99.249	1500.453	41.188	-401.848	1506.485	591.315	-9.589	1597.016	553.262	-342.091	1522.611	651.214	-83.060	1535.109	618.651	-381.672	1514.100	563.995	-98.072	1508.448	535.314	-385.726	1418.159	204.954	-5.620	1406.001	211.913	-479.492	1406.106	171.694	-78.131	1385.184	173.809	-410.446
